<svg width="513" height="513" xmlns="http://www.w3.org/2000/svg" xmlns:xlink="http://www.w3.org/1999/xlink" xml:space="preserve" overflow="hidden"><g transform="translate(-588 -133)"><g><g><g><g><path d="M834.333 566.277 651.933 566.277C650.803 566.277 649.715 565.808 648.925 565.019 648.115 564.208 647.667 563.141 647.667 562.011 647.667 561.989 647.667 531.056 647.667 531.056 647.667 513.349 660.317 497.733 679.816 484.464 714.632 460.699 770.973 445.723 834.333 445.723 843.165 445.723 850.333 438.555 850.333 429.723 850.333 420.912 843.165 413.723 834.333 413.723 763.464 413.723 700.723 431.451 661.768 458.011 632.051 478.277 615.667 504.027 615.667 531.056L615.667 562.011C615.667 571.611 619.485 580.848 626.291 587.653 633.096 594.437 642.312 598.277 651.933 598.277L834.333 598.277C843.165 598.256 850.333 591.088 850.333 582.256 850.333 573.445 843.165 566.256 834.333 566.277Z" fill="#FFFFFF" fill-rule="evenodd" fill-opacity="1"/><path d="M834.333 160.667C769.565 160.667 717 213.232 717 278 717 342.768 769.565 395.333 834.333 395.333 899.101 395.333 951.667 342.768 951.667 278 951.667 213.232 899.101 160.667 834.333 160.667ZM834.333 192.667C881.437 192.667 919.667 230.896 919.667 278 919.667 325.104 881.437 363.333 834.333 363.333 787.229 363.333 749 325.104 749 278 749 230.896 787.229 192.667 834.333 192.667Z" fill="#FFFFFF" fill-rule="evenodd" fill-opacity="1"/><path d="M962.333 431.344C920.392 431.344 886.344 465.392 886.344 507.333 886.344 549.275 920.392 583.344 962.333 583.344 1004.27 583.344 1038.34 549.275 1038.34 507.333 1038.34 465.392 1004.27 431.344 962.333 431.344ZM962.333 463.344C986.611 463.344 1006.34 483.056 1006.34 507.333 1006.34 531.611 986.611 551.344 962.333 551.344 938.056 551.344 918.323 531.611 918.323 507.333 918.323 483.056 938.056 463.344 962.333 463.344Z" fill="#FFFFFF" fill-rule="evenodd" fill-opacity="1"/><path d="M978.333 447.323 978.333 411.333C978.333 402.501 971.165 395.333 962.333 395.333 953.501 395.333 946.333 402.501 946.333 411.333L946.333 447.344C946.333 456.155 953.501 463.344 962.333 463.344 971.165 463.323 978.333 456.155 978.333 447.323Z" fill="#FFFFFF" fill-rule="evenodd" fill-opacity="1"/><path d="M1016.07 476.229 1041.52 450.757C1047.77 444.528 1047.77 434.373 1041.52 428.144 1035.29 421.893 1025.14 421.893 1018.91 428.144L993.437 453.595C987.208 459.845 987.208 469.979 993.437 476.229 999.688 482.459 1009.82 482.459 1016.07 476.229Z" fill="#FFFFFF" fill-rule="evenodd" fill-opacity="1"/><path d="M1022.32 523.333 1058.33 523.333C1067.17 523.333 1074.33 516.165 1074.33 507.333 1074.33 498.501 1067.17 491.333 1058.33 491.333L1022.32 491.333C1013.51 491.333 1006.34 498.501 1006.34 507.333 1006.32 516.165 1013.51 523.333 1022.32 523.333Z" fill="#FFFFFF" fill-rule="evenodd" fill-opacity="1"/><path d="M993.437 561.072 1018.91 586.523C1025.14 592.773 1035.29 592.773 1041.52 586.523 1047.77 580.293 1047.77 570.139 1041.52 563.909L1016.07 538.437C1009.82 532.208 999.688 532.208 993.437 538.437 987.208 544.688 987.208 554.821 993.437 561.072Z" fill="#FFFFFF" fill-rule="evenodd" fill-opacity="1"/><path d="M946.333 567.323 946.333 603.333C946.333 612.165 953.501 619.333 962.333 619.333 971.165 619.333 978.333 612.165 978.333 603.333L978.333 567.323C978.333 558.512 971.165 551.344 962.333 551.323 953.501 551.323 946.333 558.512 946.333 567.323Z" fill="#FFFFFF" fill-rule="evenodd" fill-opacity="1"/><path d="M908.595 538.437 883.144 563.909C876.893 570.139 876.893 580.293 883.144 586.523 889.373 592.773 899.528 592.773 905.757 586.523L931.229 561.072C937.459 554.821 937.459 544.688 931.229 538.437 924.979 532.208 914.845 532.208 908.595 538.437Z" fill="#FFFFFF" fill-rule="evenodd" fill-opacity="1"/><path d="M902.323 491.333 866.333 491.333C857.501 491.333 850.333 498.501 850.333 507.333 850.333 516.165 857.501 523.333 866.333 523.333L902.323 523.333C911.155 523.333 918.344 516.165 918.323 507.333 918.323 498.501 911.155 491.333 902.323 491.333Z" fill="#FFFFFF" fill-rule="evenodd" fill-opacity="1"/><path d="M931.229 453.595 905.757 428.144C899.528 421.893 889.373 421.893 883.144 428.144 876.893 434.373 876.893 444.528 883.144 450.757L908.595 476.229C914.845 482.459 924.979 482.459 931.229 476.229 937.459 469.979 937.459 459.845 931.229 453.595Z" fill="#FFFFFF" fill-rule="evenodd" fill-opacity="1"/></g></g></g></g></g></svg>