<svg width="683" height="683" xmlns="http://www.w3.org/2000/svg" xmlns:xlink="http://www.w3.org/1999/xlink" xml:space="preserve" overflow="hidden"><g transform="translate(-298 -18)"><g><g><g><g><path d="M525.003 351.358C525.003 366.046 513.097 377.946 498.414 377.946L431.943 377.946C417.259 377.946 405.354 366.046 405.354 351.358 405.354 336.673 417.259 324.769 431.943 324.769L498.414 324.769C513.097 324.769 525.003 336.673 525.003 351.358ZM498.414 222.566 431.943 222.566C417.259 222.566 405.354 234.472 405.354 249.155 405.354 263.839 417.259 275.744 431.943 275.744L498.414 275.744C513.097 275.744 525.003 263.839 525.003 249.155 525.003 234.472 513.097 222.566 498.414 222.566ZM431.943 173.376 498.414 173.376C513.097 173.376 525.003 161.475 525.003 146.787 525.003 132.103 513.097 120.198 498.414 120.198L431.943 120.198C417.259 120.198 405.354 132.103 405.354 146.787 405.354 161.475 417.259 173.376 431.943 173.376ZM498.414 427.137 431.943 427.137C417.259 427.137 405.354 439.043 405.354 453.726 405.354 468.41 417.259 480.314 431.943 480.314L498.414 480.314C513.097 480.314 525.003 468.41 525.003 453.726 525.003 439.043 513.097 427.137 498.414 427.137ZM827.401 236.938C846.408 244.806 858.693 263.188 858.693 283.772L858.693 429.577C858.693 450.163 846.408 468.55 827.401 476.417 821.099 479.024 814.507 480.289 807.981 480.289 794.822 480.289 781.919 475.138 772.204 465.413 772.204 465.413 772.204 465.413 772.204 465.408L710.702 403.837C684.722 377.832 684.722 335.519 710.702 309.513L772.204 247.943C786.737 233.394 808.403 229.076 827.401 236.938ZM805.516 289.839 748.321 347.091C743.045 352.377 743.045 360.972 748.321 366.259L805.516 423.517ZM926.491 461.703 926.491 126.686C926.491 97.3609 902.639 73.5093 873.313 73.5093L631.358 73.5093 631.358 647.823 873.313 647.823C902.639 647.823 926.491 623.966 926.491 594.645 926.491 579.962 938.396 568.057 953.079 568.057 967.768 568.057 979.668 579.962 979.668 594.645 979.668 653.292 931.96 701 873.313 701L405.354 701C346.709 701 299 653.292 299 594.645L299 126.686C299 68.0406 346.709 20.332 405.354 20.332L596.496 20.332C599.103 19.4735 601.881 19 604.769 19 607.662 19 610.436 19.4735 613.042 20.332L873.313 20.332C931.96 20.332 979.668 68.0406 979.668 126.686L979.668 461.703C979.668 476.386 967.768 488.291 953.079 488.291 938.396 488.291 926.491 476.386 926.491 461.703ZM578.18 73.5093 405.354 73.5093C376.034 73.5093 352.177 97.3609 352.177 126.686L352.177 594.645C352.177 623.966 376.034 647.823 405.354 647.823L578.18 647.823Z" fill="#FFFFFF" fill-rule="nonzero" fill-opacity="1"/></g></g></g></g></g></svg>