<svg width="2461" height="2402" xmlns="http://www.w3.org/2000/svg" xmlns:xlink="http://www.w3.org/1999/xlink" xml:space="preserve" overflow="hidden"><defs><clipPath id="clip0"><rect x="1008" y="73" width="2461" height="2402"/></clipPath><clipPath id="clip1"><rect x="1008" y="73" width="2461" height="2402"/></clipPath><clipPath id="clip2"><rect x="1791" y="750" width="909" height="1113"/></clipPath><clipPath id="clip3"><rect x="1791" y="750" width="909" height="1113"/></clipPath></defs><g clip-path="url(#clip0)" transform="translate(-1008 -73)"><g clip-path="url(#clip1)"><g clip-path="url(#clip2)"><g clip-path="url(#clip3)"><g><g><path d="M0 0C-0.738495-291.071 10.8005-579.546-0.738495-868.02-23.8165-1156.5-243.057-1398.81-531.532-1444.97-646.922-1456.51-773.851-1456.51-891.456-1453.04" stroke="#002060" stroke-width="173.085" stroke-linecap="round" stroke-linejoin="round" stroke-miterlimit="10" stroke-opacity="1" fill="none" fill-rule="nonzero" transform="matrix(1.00059 0 0 -1 3232.79 4434.08)"/><path d="M0 0 459.517 0C596.75 0 707.998 111.247 707.998 248.481 707.998 385.702 596.75 496.95 459.517 496.95L0 496.95C-137.233 496.95-248.481 385.702-248.481 248.481-248.481 111.247-137.233 0 0 0Z" stroke="#002060" stroke-width="173.085" stroke-linecap="round" stroke-linejoin="round" stroke-miterlimit="10" stroke-opacity="1" fill="none" fill-rule="nonzero" transform="matrix(1.00059 0 0 -1 1632.39 6138.68)"/><path d="M0 0C224.422 172.069 476.514 307.653 744.092 399.272 1023.25 494.861 1318.27 542.009 1613.29 539.436 1837.4 537.475 2061.15 506.885 2277.42 447.967" stroke="#002060" stroke-width="173.085" stroke-linecap="round" stroke-linejoin="round" stroke-miterlimit="10" stroke-opacity="1" fill="none" fill-rule="nonzero" transform="matrix(1.00059 0 0 -1 -586.447 943.329)"/><path d="M0 0C-1.02697 619.009 218.214 1242.11 632.81 1706.59" stroke="#002060" stroke-width="173.085" stroke-linecap="round" stroke-linejoin="round" stroke-miterlimit="10" stroke-opacity="1" fill="none" fill-rule="nonzero" transform="matrix(1.00059 0 0 -1 -1616.19 3024.82)"/><path d="M0 0C-123.213 21.151-249.842 32.1707-378.987 32.1707-1611.22 32.1707-2613.72-971.029-2613.72-2204.13L-2613.72-3822.96" stroke="#002060" stroke-width="173.085" stroke-linecap="round" stroke-linejoin="round" stroke-miterlimit="10" stroke-opacity="1" fill="none" fill-rule="nonzero" transform="matrix(1.00059 0 0 -1 1383.76 820.693)"/><path d="M0 0C-9.45043 294.267-75.9958 574.353-188.882 829.515" stroke="#002060" stroke-width="173.085" stroke-linecap="round" stroke-linejoin="round" stroke-miterlimit="10" stroke-opacity="1" fill="none" fill-rule="nonzero" transform="matrix(1.00059 0 0 -1 3239.43 2952)"/><path d="M0 0C231.022-383.129 366.894-829.884 374.59-1307.26" stroke="#002060" stroke-width="173.085" stroke-linecap="round" stroke-linejoin="round" stroke-miterlimit="10" stroke-opacity="1" fill="none" fill-rule="nonzero" transform="matrix(1.00059 0 0 -1 3250.12 1674.67)"/><path d="M0 0-144.272 0C-414.504 0-633.571-219.056-633.571-489.288L-633.571-1325.55C-633.571-1595.78-414.504-1814.84-144.272-1814.84L6.10413-1814.84" stroke="#002060" stroke-width="173.085" stroke-linecap="round" stroke-linejoin="round" stroke-miterlimit="10" stroke-opacity="1" fill="none" fill-rule="nonzero" transform="matrix(1.00059 0 0 -1 -1231.51 2981.92)"/><path d="M0 0 0 0C132.779 0 240.426-107.647 240.426-240.426L240.426-2055.69C240.426-2188.48 132.779-2296.12 0-2296.12-132.791-2296.12-240.426-2188.48-240.426-2055.69L-240.426-240.426C-240.426-107.647-132.791 0 0 0Z" stroke="#002060" stroke-width="173.085" stroke-linecap="round" stroke-linejoin="round" stroke-miterlimit="10" stroke-opacity="1" fill="none" fill-rule="nonzero" transform="matrix(1.00059 0 0 -1 -984.825 2726.43)"/><path d="M0 0 150.376 0C420.608 0 639.675 219.068 639.675 489.288L639.675 1325.55C639.675 1595.78 420.608 1814.85 150.376 1814.85L0 1814.85" stroke="#002060" stroke-width="173.085" stroke-linecap="round" stroke-linejoin="round" stroke-miterlimit="10" stroke-opacity="1" fill="none" fill-rule="nonzero" transform="matrix(1.00059 0 0 -1 3232.79 4767.06)"/><path d="M0 0 0 973.937C0 1106.73-107.647 1214.36-240.426 1214.36-373.217 1214.36-480.853 1106.73-480.853 973.937L-480.853-841.331C-480.853-974.11-373.217-1081.76-240.426-1081.76-107.647-1081.76 0-974.11 0-841.331L0-460.717" stroke="#002060" stroke-width="173.085" stroke-linecap="round" stroke-linejoin="round" stroke-miterlimit="10" stroke-opacity="1" fill="none" fill-rule="nonzero" transform="matrix(1.00059 0 0 -1 3232.79 3940.79)"/><path d="M0 0C669.919 0 1212.99-542.979 1212.99-1212.77 1212.99-1565.93 1061.96-1883.8 820.999-2105.44L820.999-2425.21 531.763-2303.02C371.186-2381.46 190.751-2425.54 0-2425.54-669.919-2425.54-1212.99-1882.56-1212.99-1212.77-1212.99-542.979-669.919 0 0 0Z" stroke="#002060" stroke-width="173.085" stroke-linecap="round" stroke-linejoin="round" stroke-miterlimit="10" stroke-opacity="1" fill="none" fill-rule="nonzero" transform="matrix(1.00059 0 0 -1 1003.69 2685.58)"/><path d="M0 0 462.956 0" stroke="#002060" stroke-width="173.085" stroke-linecap="round" stroke-linejoin="round" stroke-miterlimit="10" stroke-opacity="1" fill="none" fill-rule="nonzero" transform="matrix(1.00059 0 0 -1 772.084 3412.94)"/><path d="M0 0 462.956 0" stroke="#002060" stroke-width="173.085" stroke-linecap="round" stroke-linejoin="round" stroke-miterlimit="10" stroke-opacity="1" fill="none" fill-rule="nonzero" transform="matrix(1.00059 0 0 -1 772.084 4383.76)"/><path d="M0 0 958.313 0" stroke="#002060" stroke-width="173.085" stroke-linecap="round" stroke-linejoin="round" stroke-miterlimit="10" stroke-opacity="1" fill="none" fill-rule="nonzero" transform="matrix(1.00059 0 0 -1 524.252 3898.35)"/><path d="M0 0C-569.968 0-1032.01-461.963-1032.01-1031.83-1032.01-1332.3-903.514-1602.74-698.513-1791.31L-698.513-2063.38-452.432-1959.41C-315.811-2026.15-162.296-2063.66 8.19895e-14-2063.66 569.968-2063.66 1032.01-1601.69 1032.01-1031.83 1032.01-461.963 569.968 0 0 0Z" stroke="#002060" stroke-width="173.085" stroke-linecap="round" stroke-linejoin="round" stroke-miterlimit="10" stroke-opacity="1" fill="none" fill-rule="nonzero" transform="matrix(1.00059 0 0 -1 2245.38 403.801)"/><path d="M0 0C0 13.4083 0.934658 26.5858 2.73474 39.4864 22.201 179.027 143.383 285.994 288.959 283.063 436.22 280.086 558.199 162.157 565.837 15.0584 574.307-147.941 444.47-283.121 283.121-283.121L283.121-579.165" stroke="#002060" stroke-width="173.085" stroke-linecap="round" stroke-linejoin="round" stroke-miterlimit="10" stroke-opacity="1" fill="none" fill-rule="nonzero" transform="matrix(1.00059 0 0 -1 1962.1 1144.77)"/><path d="M0 0C111.374 0 111.547 173.085 0 173.085-111.374 173.085-111.559 0 0 0" stroke="#002060" stroke-width="11.539" stroke-linecap="butt" stroke-linejoin="miter" stroke-miterlimit="4" stroke-opacity="1" fill="none" fill-rule="nonzero" transform="matrix(1.00059 0 0 -1 2245.38 2107.58)"/></g></g></g></g><path d="M1206 1282.5C1206 706.743 1668.49 240 2239 240 2809.51 240 3272 706.743 3272 1282.5 3272 1858.26 2809.51 2325 2239 2325 1668.49 2325 1206 1858.26 1206 1282.5ZM1385.29 1282.5C1385.29 1759.24 1767.51 2145.71 2239 2145.71 2710.49 2145.71 3092.71 1759.24 3092.71 1282.5 3092.71 805.76 2710.49 419.286 2239 419.286 1767.51 419.286 1385.29 805.76 1385.29 1282.5Z" fill="#002060" fill-rule="evenodd" fill-opacity="1"/><path d="M1554.86 2054.32 1295.57 2112.41 1384.66 1862.07Z" fill="#002060" fill-rule="evenodd" fill-opacity="1"/></g></g></svg>