<svg width="512" height="514" xmlns="http://www.w3.org/2000/svg" xmlns:xlink="http://www.w3.org/1999/xlink" xml:space="preserve" overflow="hidden"><g transform="translate(12 -86)"><g><g><g><g><path d="M363.952 144.727C299.478 103.008 215.662 106.043 155.17 151.933 79.3182 209.77 86.9027 294.345 91.0753 318.997 91.0753 319.755 91.0753 320.324 90.8855 320.893L49.736 376.454C46.133 381.195 44.9953 387.453 46.7014 393.142 48.4086 398.831 52.7697 403.382 58.2684 405.468L92.5914 418.363 92.5914 460.84C92.5914 489.094 115.537 512.229 143.792 512.229L174.133 512.229 174.133 529.486C174.133 552.241 192.527 570.635 215.093 570.635L348.592 570.635C371.778 570.635 391.6 550.868 389.552 525.883L385.001 476.579C380.41 422.762 406.376 410.798 432.219 337.77 458.183 263.263 431.982 189.025 363.952 144.727ZM264.77 440.779C256.068 440.779 245.807 433.463 245.807 421.816 245.807 411.889 253.607 402.87 264.812 402.819 275.272 402.769 283.733 411.13 283.733 421.816 283.733 433.053 274.257 440.779 264.77 440.779ZM302.084 313.173C290.455 321.579 283.779 333.338 283.779 345.45 283.779 355.923 275.289 364.859 264.816 364.859 254.344 364.859 245.853 356.811 245.853 346.339 245.853 321.014 258.251 298.052 279.88 282.432 287.973 276.58 291.908 266.719 290.15 256.7 288.371 246.58 279.751 237.96 269.64 236.182 252.778 233.222 239.047 246.118 239.047 261.524 239.047 271.997 230.557 280.487 220.084 280.487 209.613 280.487 201.121 271.997 201.121 261.524 201.121 222.072 236.688 191.834 276.195 198.83 301.89 203.339 322.992 224.441 327.502 250.136 331.797 274.589 322.067 298.746 302.084 313.173Z" fill="#FFFFFF" fill-rule="nonzero" fill-opacity="1"/></g></g></g></g></g></svg>