<svg width="512" height="512" xmlns="http://www.w3.org/2000/svg" xmlns:xlink="http://www.w3.org/1999/xlink" xml:space="preserve" overflow="hidden"><g transform="translate(-384 -104)"><g><path d="M842.406 484.681C833.543 478.088 821.015 479.929 814.422 488.79 810.796 493.664 806.916 498.445 802.889 503 795.574 511.275 796.351 523.915 804.626 531.231 808.432 534.595 813.157 536.247 817.865 536.247 823.397 536.247 828.905 533.964 832.857 529.493 837.626 524.099 842.221 518.437 846.515 512.664 853.108 503.803 851.269 491.273 842.406 484.681Z" fill="#002060" fill-rule="nonzero" fill-opacity="1"/><path d="M875.854 390.886C865.068 388.537 854.407 395.382 852.058 406.174 850.765 412.111 849.203 418.059 847.412 423.855 844.151 434.409 850.063 445.607 860.616 448.868 862.583 449.475 864.571 449.764 866.527 449.764 875.067 449.764 882.975 444.25 885.629 435.662 887.755 428.784 889.609 421.725 891.143 414.682 893.492 403.89 886.647 393.236 875.854 390.886Z" fill="#002060" fill-rule="nonzero" fill-opacity="1"/><path d="M746.139 548.734C740.829 551.698 735.331 554.468 729.799 556.967 719.732 561.513 715.257 573.359 719.803 583.426 723.143 590.822 730.422 595.199 738.042 595.199 740.794 595.199 743.591 594.628 746.262 593.422 752.825 590.458 759.343 587.173 765.639 583.658 775.284 578.274 778.737 566.09 773.351 556.446 767.968 546.803 755.784 543.35 746.139 548.734Z" fill="#002060" fill-rule="nonzero" fill-opacity="1"/><path d="M620 200 620 351.716 546.661 425.054C538.851 432.865 538.851 445.528 546.661 453.338 550.567 457.244 555.684 459.196 560.804 459.196 565.922 459.196 571.041 457.243 574.947 453.338L654.143 374.142C657.893 370.392 660 365.304 660 360L660 200C660 188.954 651.046 180 640 180 628.954 180 620 188.954 620 200Z" fill="#002060" fill-rule="nonzero" fill-opacity="1"/><path d="M876 147C864.954 147 856 155.954 856 167L856 222.536C809.448 149.528 728.151 104 640 104 571.62 104 507.333 130.629 458.98 178.98 410.629 227.333 384 291.62 384 360 384 428.38 410.629 492.667 458.98 541.02 507.333 589.371 571.62 616 640 616 640.169 616 640.332 615.979 640.5 615.975 640.668 615.979 640.831 616 641 616 648.208 616 655.487 615.696 662.637 615.098 673.644 614.176 681.82 604.506 680.899 593.499 679.976 582.492 670.319 574.312 659.299 575.238 653.255 575.743 647.099 576 641 576 640.831 576 640.668 576.021 640.5 576.025 640.332 576.021 640.169 576 640 576 520.897 576 424 479.103 424 360 424 240.897 520.897 144 640 144 716.758 144 787.357 184.913 825.936 250L770.943 250C759.897 250 750.943 258.954 750.943 270 750.943 281.046 759.897 290 770.943 290L832 290C844.18 290 855.575 286.577 865.277 280.647 865.901 280.291 866.501 279.908 867.073 279.495 884.479 268.044 896 248.347 896 226L896 167C896 155.954 887.046 147 876 147Z" fill="#002060" fill-rule="nonzero" fill-opacity="1"/></g></g></svg>